<svg width="512" height="512" viewBox="0 0 512 512" fill="none" xmlns="http://www.w3.org/2000/svg">
  <defs>
    <linearGradient id="bg" x1="92" y1="56" x2="420" y2="456" gradientUnits="userSpaceOnUse">
      <stop stop-color="#20A4C7"/>
      <stop offset="0.52" stop-color="#1978B8"/>
      <stop offset="1" stop-color="#28487D"/>
    </linearGradient>
    <linearGradient id="card" x1="150" y1="128" x2="358" y2="392" gradientUnits="userSpaceOnUse">
      <stop stop-color="#FFFFFF"/>
      <stop offset="1" stop-color="#E7F3F5"/>
    </linearGradient>
    <linearGradient id="accent" x1="330" y1="104" x2="420" y2="196" gradientUnits="userSpaceOnUse">
      <stop stop-color="#FFB84D"/>
      <stop offset="1" stop-color="#F15A3B"/>
    </linearGradient>
    <filter id="softShadow" x="86" y="82" width="340" height="372" filterUnits="userSpaceOnUse" color-interpolation-filters="sRGB">
      <feFlood flood-opacity="0" result="BackgroundImageFix"/>
      <feColorMatrix in="SourceAlpha" type="matrix" values="0 0 0 0 0 0 0 0 0 0 0 0 0 0 0 0 0 0 127 0" result="hardAlpha"/>
      <feOffset dy="16"/>
      <feGaussianBlur stdDeviation="22"/>
      <feColorMatrix type="matrix" values="0 0 0 0 0.03 0 0 0 0 0.12 0 0 0 0 0.2 0 0 0 0.32 0"/>
      <feBlend mode="normal" in2="BackgroundImageFix" result="effect1_dropShadow"/>
      <feBlend mode="normal" in="SourceGraphic" in2="effect1_dropShadow" result="shape"/>
    </filter>
  </defs>

  <rect x="32" y="32" width="448" height="448" rx="112" fill="url(#bg)"/>
  <path d="M86 374C143 407 208 424 281 424C349 424 403 408 440 377C413 430 354 464 256 464C154 464 94 425 86 374Z" fill="#0B2A4A" fill-opacity="0.16"/>

  <g filter="url(#softShadow)">
    <rect x="130" y="114" width="252" height="288" rx="46" fill="url(#card)"/>
    <rect x="130" y="114" width="252" height="94" rx="46" fill="#DDF1F5"/>
    <path d="M130 181H382V214H130V181Z" fill="#DDF1F5"/>
    <rect x="172" y="82" width="42" height="88" rx="21" fill="#F4FCFD"/>
    <rect x="298" y="82" width="42" height="88" rx="21" fill="#F4FCFD"/>
    <rect x="184" y="105" width="18" height="55" rx="9" fill="#1978B8"/>
    <rect x="310" y="105" width="18" height="55" rx="9" fill="#1978B8"/>
    <rect x="170" y="246" width="172" height="28" rx="14" fill="#BFDADF"/>
    <rect x="170" y="306" width="92" height="28" rx="14" fill="#BFDADF"/>
    <path d="M188 284L232 328L330 228" stroke="#0F6F8F" stroke-width="36" stroke-linecap="round" stroke-linejoin="round"/>
  </g>

  <circle cx="378" cy="148" r="58" fill="url(#accent)"/>
  <path d="M378 116V151L402 169" stroke="#FFF6E6" stroke-width="18" stroke-linecap="round" stroke-linejoin="round"/>
  <circle cx="378" cy="148" r="58" stroke="#FFF6E6" stroke-opacity="0.34" stroke-width="10"/>
</svg>
